<?xml version="1.0" standalone="no"?>
<!DOCTYPE svg PUBLIC "-//W3C//DTD SVG 1.1//EN" "http://www.w3.org/Graphics/SVG/1.1/DTD/svg11.dtd">
<svg version="1.1" xmlns="http://www.w3.org/2000/svg" viewBox="0 0 327.3370236358978 198.7516592103988" width="327.3370236358978" height="198.7516592103988"><!-- svg-source:excalidraw --><metadata></metadata><defs><style class="style-fonts">
      </style></defs><g transform="translate(10 155.6188467103988) rotate(0 153.142578125 -48.89453125)" stroke="none"><path fill="#e1e1e1" d="M -0.86,-1.29 Q -0.86,-1.29 2.27,-3.35 5.41,-5.41 9.74,-7.34 14.07,-9.28 19.45,-10.89 24.83,-12.50 30.90,-13.74 36.97,-14.99 42.83,-15.53 48.69,-16.06 53.33,-16.23 57.97,-16.41 62.43,-16.04 66.89,-15.68 71.76,-14.86 76.63,-14.03 82.25,-12.35 87.87,-10.67 93.21,-8.77 98.56,-6.87 102.82,-4.91 107.08,-2.94 110.77,-1.05 114.46,0.83 117.66,2.65 120.86,4.47 123.57,6.12 126.28,7.78 128.32,9.15 130.36,10.52 132.14,11.97 133.92,13.42 135.42,15.20 136.92,16.98 137.95,18.80 138.99,20.62 139.80,22.25 140.62,23.88 141.07,25.34 141.53,26.80 141.63,28.14 141.73,29.49 141.05,30.94 140.36,32.39 138.66,33.15 136.96,33.92 134.31,34.21 131.66,34.50 128.49,34.14 125.33,33.78 122.31,32.83 119.30,31.87 116.06,30.42 112.82,28.97 109.80,27.17 106.78,25.38 103.78,23.09 100.79,20.80 97.79,17.75 94.80,14.71 92.28,10.98 89.75,7.25 87.54,3.20 85.33,-0.85 83.51,-4.87 81.69,-8.90 80.50,-12.54 79.31,-16.19 78.53,-19.51 77.75,-22.84 77.42,-26.03 77.08,-29.21 77.08,-32.21 77.07,-35.22 77.48,-38.14 77.89,-41.06 78.76,-43.98 79.62,-46.90 80.96,-49.69 82.30,-52.47 84.46,-55.35 86.62,-58.22 89.12,-60.77 91.61,-63.33 94.53,-65.58 97.45,-67.84 100.55,-69.61 103.65,-71.39 106.60,-72.72 109.56,-74.05 112.17,-75.01 114.79,-75.98 117.85,-76.67 120.91,-77.36 124.41,-77.65 127.92,-77.95 131.28,-78.07 134.64,-78.19 137.69,-78.20 140.75,-78.21 143.71,-77.95 146.67,-77.68 149.55,-77.26 152.43,-76.84 155.01,-76.35 157.59,-75.86 160.11,-75.02 162.62,-74.18 164.85,-73.20 167.08,-72.21 169.40,-70.95 171.72,-69.68 173.70,-68.18 175.69,-66.68 177.53,-65.12 179.38,-63.57 180.97,-62.22 182.56,-60.87 183.91,-59.66 185.26,-58.45 186.44,-57.23 187.62,-56.01 188.75,-54.48 189.89,-52.95 191.05,-51.41 192.22,-49.88 193.22,-48.32 194.21,-46.76 194.74,-44.94 195.27,-43.11 195.50,-41.45 195.73,-39.78 195.86,-38.37 196.00,-36.96 196.09,-35.65 196.18,-34.34 195.59,-31.97 195.01,-29.59 193.95,-28.54 192.90,-27.48 191.13,-26.82 189.36,-26.15 187.37,-26.08 185.38,-26.01 183.57,-26.38 181.76,-26.76 179.86,-27.93 177.96,-29.11 175.96,-31.27 173.96,-33.42 172.24,-36.09 170.53,-38.75 169.24,-41.12 167.95,-43.49 166.87,-45.75 165.80,-48.01 165.00,-50.02 164.20,-52.02 163.51,-53.93 162.82,-55.84 162.43,-57.58 162.05,-59.33 161.85,-60.97 161.66,-62.61 161.55,-64.19 161.44,-65.78 161.38,-67.33 161.31,-68.88 161.37,-70.67 161.43,-72.46 161.60,-74.31 161.78,-76.16 162.14,-78.06 162.51,-79.96 163.23,-82.08 163.94,-84.20 164.80,-86.65 165.66,-89.09 166.80,-91.75 167.94,-94.41 169.42,-96.91 170.89,-99.42 172.32,-101.68 173.75,-103.95 175.40,-106.21 177.04,-108.47 179.09,-110.47 181.13,-112.46 183.07,-114.17 185.01,-115.87 187.15,-117.42 189.30,-118.96 191.82,-120.26 194.34,-121.56 196.74,-122.68 199.14,-123.79 201.52,-124.79 203.90,-125.79 206.56,-126.67 209.23,-127.55 211.99,-128.27 214.75,-129.00 217.54,-129.66 220.32,-130.31 223.42,-130.86 226.51,-131.41 230.03,-131.65 233.55,-131.89 237.24,-131.77 240.92,-131.65 244.62,-131.42 248.33,-131.19 252.08,-130.78 255.82,-130.38 259.57,-129.85 263.32,-129.33 267.09,-128.62 270.85,-127.91 274.61,-127.08 278.37,-126.25 282.12,-125.38 285.86,-124.50 289.47,-123.23 293.08,-121.96 295.99,-120.57 298.90,-119.18 301.20,-118.02 303.49,-116.87 305.20,-116.07 306.92,-115.26 307.10,-115.13 307.29,-114.99 307.42,-114.81 307.55,-114.62 307.62,-114.40 307.68,-114.18 307.68,-113.95 307.67,-113.72 307.59,-113.51 307.51,-113.30 307.36,-113.12 307.22,-112.94 307.03,-112.82 306.83,-112.70 306.61,-112.64 306.39,-112.59 306.16,-112.61 305.93,-112.63 305.72,-112.72 305.51,-112.81 305.34,-112.96 305.17,-113.12 305.06,-113.32 304.95,-113.52 304.91,-113.74 304.86,-113.97 304.90,-114.20 304.93,-114.42 305.03,-114.63 305.13,-114.83 305.30,-114.99 305.46,-115.15 305.67,-115.25 305.87,-115.35 306.10,-115.38 306.33,-115.41 306.55,-115.37 306.78,-115.33 306.97,-115.21 307.17,-115.10 307.33,-114.93 307.48,-114.75 307.57,-114.54 307.66,-114.33 307.67,-114.10 307.69,-113.88 307.63,-113.65 307.58,-113.43 307.45,-113.24 307.33,-113.05 307.15,-112.90 306.97,-112.76 306.75,-112.68 306.54,-112.61 306.31,-112.60 306.08,-112.60 305.86,-112.67 305.64,-112.73 305.64,-112.73 305.64,-112.73 303.98,-113.63 302.31,-114.52 300.04,-115.67 297.77,-116.81 294.98,-118.15 292.20,-119.48 288.73,-120.71 285.26,-121.94 281.53,-122.81 277.80,-123.69 274.09,-124.51 270.37,-125.33 266.66,-126.03 262.96,-126.73 259.25,-127.25 255.54,-127.76 251.85,-128.17 248.17,-128.57 244.50,-128.79 240.83,-129.02 237.28,-129.14 233.73,-129.26 230.35,-129.04 226.97,-128.82 223.95,-128.28 220.93,-127.75 218.17,-127.10 215.42,-126.44 212.74,-125.74 210.05,-125.03 207.49,-124.19 204.93,-123.35 202.60,-122.36 200.26,-121.37 197.91,-120.28 195.56,-119.19 193.22,-117.98 190.87,-116.77 188.84,-115.30 186.81,-113.83 184.94,-112.16 183.06,-110.49 181.19,-108.66 179.32,-106.83 177.76,-104.63 176.20,-102.43 174.83,-100.18 173.46,-97.93 172.13,-95.58 170.80,-93.23 169.79,-90.65 168.77,-88.08 168.04,-85.64 167.30,-83.19 166.79,-81.23 166.28,-79.26 165.97,-77.54 165.67,-75.81 165.52,-74.07 165.38,-72.33 165.32,-70.63 165.27,-68.93 165.24,-67.42 165.22,-65.90 165.22,-64.40 165.22,-62.89 165.27,-61.40 165.32,-59.90 165.51,-58.38 165.70,-56.87 166.36,-55.03 167.02,-53.18 167.82,-51.30 168.63,-49.43 169.75,-47.30 170.87,-45.17 172.21,-42.98 173.55,-40.79 175.18,-38.51 176.82,-36.23 178.58,-34.58 180.34,-32.93 181.60,-32.16 182.86,-31.40 184.06,-31.11 185.27,-30.83 186.58,-30.87 187.89,-30.90 189.39,-31.47 190.89,-32.04 191.38,-33.14 191.87,-34.24 191.90,-35.50 191.93,-36.75 191.93,-38.06 191.92,-39.38 191.83,-40.82 191.73,-42.26 191.48,-43.64 191.24,-45.01 190.41,-46.43 189.59,-47.86 188.38,-49.43 187.16,-51.00 186.17,-52.43 185.18,-53.87 184.20,-55.10 183.21,-56.33 182.02,-57.59 180.82,-58.84 179.25,-60.20 177.68,-61.56 175.89,-63.07 174.10,-64.59 172.28,-65.98 170.45,-67.38 168.24,-68.59 166.02,-69.81 163.90,-70.75 161.78,-71.69 159.44,-72.49 157.10,-73.28 154.57,-73.76 152.05,-74.24 149.24,-74.65 146.43,-75.07 143.59,-75.32 140.75,-75.58 137.74,-75.57 134.74,-75.57 131.44,-75.45 128.13,-75.33 124.81,-75.06 121.48,-74.79 118.59,-74.15 115.70,-73.51 113.16,-72.58 110.63,-71.65 107.79,-70.38 104.95,-69.10 102.00,-67.43 99.05,-65.76 96.27,-63.62 93.48,-61.48 91.10,-59.06 88.72,-56.63 86.69,-53.97 84.66,-51.32 83.40,-48.73 82.15,-46.14 81.33,-43.41 80.51,-40.69 80.11,-37.95 79.72,-35.22 79.72,-32.35 79.72,-29.48 80.04,-26.46 80.35,-23.45 81.10,-20.23 81.86,-17.02 83.00,-13.51 84.15,-10.01 85.94,-6.08 87.72,-2.15 89.88,1.77 92.04,5.70 94.42,9.22 96.81,12.74 99.67,15.62 102.53,18.50 105.41,20.65 108.28,22.80 111.18,24.45 114.07,26.11 117.16,27.41 120.26,28.71 122.97,29.48 125.68,30.25 128.39,30.45 131.10,30.65 134.28,30.22 137.46,29.80 137.83,28.68 138.19,27.56 138.02,26.34 137.86,25.12 137.20,23.53 136.55,21.94 135.72,20.30 134.89,18.65 133.57,17.05 132.25,15.45 130.57,14.08 128.89,12.70 126.90,11.36 124.90,10.02 122.23,8.39 119.55,6.76 116.41,4.97 113.26,3.18 109.62,1.31 105.97,-0.54 101.82,-2.46 97.67,-4.38 92.39,-6.25 87.11,-8.13 81.65,-9.77 76.19,-11.41 71.43,-12.21 66.67,-13.01 62.37,-13.36 58.08,-13.71 53.51,-13.53 48.94,-13.34 43.23,-12.81 37.53,-12.29 31.59,-11.04 25.64,-9.80 20.45,-8.22 15.26,-6.64 11.16,-4.78 7.06,-2.92 3.96,-0.81 0.86,1.29 0.70,1.38 0.53,1.46 0.34,1.51 0.16,1.55 -0.02,1.55 -0.21,1.54 -0.39,1.50 -0.57,1.45 -0.74,1.36 -0.90,1.27 -1.04,1.14 -1.18,1.01 -1.28,0.86 -1.39,0.70 -1.45,0.52 -1.52,0.35 -1.54,0.16 -1.56,-0.02 -1.53,-0.20 -1.51,-0.39 -1.44,-0.57 -1.37,-0.74 -1.26,-0.89 -1.15,-1.05 -1.01,-1.17 -0.86,-1.29 -0.86,-1.29 L -0.86,-1.29 Z"></path></g><g stroke-linecap="round"><g transform="translate(278.078125 11.029002960398799) rotate(0 18.732421875 14.4609375)"><path d="M-0.62 -1.03 C5.46 3.78, 30.7 24.07, 36.86 28.94 M1.25 1.05 C7.7 6.05, 33.02 25.81, 39.26 30.49" stroke="#e1e1e1" stroke-width="2" fill="none"></path></g></g><mask></mask><g stroke-linecap="round"><g transform="translate(268.54296875 45.4743154603988) rotate(0 21.7421875 -2.806640625)"><path d="M0.15 0.12 C7.47 -0.7, 36.81 -4.23, 44.02 -5.26 M-0.44 -0.3 C6.85 -1.24, 36.63 -5.15, 43.86 -6.05" stroke="#e1e1e1" stroke-width="2" fill="none"></path></g></g><mask></mask></svg>